<svg xmlns="http://www.w3.org/2000/svg" xmlns:xlink="http://www.w3.org/1999/xlink" id="Layer_1" width="856" height="443" x="0" style="enable-background:new 0 0 856 443" y="0" version="1.1" viewBox="0 0 856 443" xml:space="preserve"><style type="text/css">.st0{fill:none;stroke:#252525;stroke-width:5.07;stroke-linecap:round;stroke-dasharray:1.000000e-03,20.28}.st1{fill-rule:evenodd;clip-rule:evenodd}.st1,.st2{fill:#fff;stroke:#191919;stroke-width:3;stroke-linejoin:round}.st3{fill:#191919}.st4{font-family:&apos;IBMPlexSans-Medium&apos;}.st5{font-size:25.36px}.st6{font-family:&apos;IBMPlexSans&apos;}.st7{font-size:24px}.st8{fill:none;stroke:#252525;stroke-width:2}</style><path id="Shape_2_copy" d="M593.91,236.05h-99.29" class="st0"/><path d="M363.9,237.02h-99.29" class="st0"/><path id="milestone4" d="M218.93,159.78c42.12,0.01,76.26,34.16,76.25,76.28c-0.01,42.12-34.16,76.26-76.28,76.25	c-42.11-0.01-76.25-34.15-76.25-76.26C142.66,193.92,176.8,159.78,218.93,159.78C218.93,159.78,218.93,159.78,218.93,159.78z" class="st1"/><circle id="milestone5" cx="428.39" cy="237.02" r="76.27" class="st2"/><ellipse id="milestone6" cx="637.65" cy="237.02" class="st2" rx="76.25" ry="76.27"/><text class="st3 st4 st5" transform="matrix(1 0 0 1 199.2097 225.8452)">Oct</text><text class="st3 st4 st5" transform="matrix(1 0 0 1 188.9011 260.7153)">2019</text><text class="st3 st4 st5" transform="matrix(1 0 0 1 407.737 225.8452)">Nov</text><text class="st3 st4 st5" transform="matrix(1 0 0 1 399.9011 260.7153)">2019</text><text class="st3 st4 st5" transform="matrix(1 0 0 1 607.5554 228.8452)">Dec 1</text><text class="st3 st4 st5" transform="matrix(1 0 0 1 609.9011 263.7153)">2019</text><text class="st3 st6 st7" transform="matrix(1 0 0 1 587.5721 362.29)">2nd Wave</text><text class="st3 st6 st7" transform="matrix(1 0 0 1 592.9841 392.29)">Deadline</text><text id="Grants_Wave_2" class="st3 st6 st7" transform="matrix(1 0 0 1 347.3875 83.6801)">Grants Wave 2</text><path d="M427.34,102v18" class="st8"/><path id="Rounded_Rectangle_1-2" d="M143.34,160c0-22.09,17.91-40,40-40h485c22.09,0,21.58-0.7,40,0" class="st8"/><path id="Shape_2_copy-2" d="M807.42,119.9h-99.29" class="st0"/><text class="st3 st6 st7" transform="matrix(1 0 0 1 166.5721 362.29)">2nd Wave</text><text class="st3 st6 st7" transform="matrix(1 0 0 1 186.9841 392.29)">Open</text></svg>